Subj06walk_45
version=1
nRows=41
nColumns=19
inDegrees=no
endheader
time	l_ground_force_vx	l_ground_force_vy	l_ground_force_vz	l_ground_force_px	l_ground_force_py	l_ground_force_pz	ground_force_vx	ground_force_vy	ground_force_vz	ground_force_px	ground_force_py	ground_force_pz	l_ground_torque_x	l_ground_torque_y	l_ground_torque_z	ground_torque_x	ground_torque_y	ground_torque_z	
29.52	0	0	0	0	0	0	-43.0948570984297	504.693032792078	-20.8387434450026	0.111002730417884	0	0.0363388554039772	0	0	0	0	-1.80928002384406	0
29.53	0	0	0	0	0	0	-39.9075943117242	485.62278554415	-18.4008191509258	0.103107418611774	0	0.0344638785471237	0	0	0	0	-1.55811009596123	0
29.54	0	0	0	0	0	0	-36.2114726415107	469.688502804131	-15.7715643127249	0.0944836949881467	0	0.0324746917025049	0	0	0	0	-1.11967463234764	0
29.55	0	0	0	0	0	0	-31.989391778079	457.625668830563	-13.3058528557683	0.0851091001814809	0	0.0307225050912849	0	0	0	0	-0.543572602260907	0
29.56	0	0	0	0	0	0	-27.6694915178169	449.431060079848	-11.2734570676658	0.075385484724615	0	0.029410623272499	0	0	0	0	0.035595245575565	0
29.57	0	0	0	0	0	0	-23.7373821700471	444.31411404555	-9.79975239099331	0.0658544646359864	0	0.0285995628476586	0	0	0	0	0.497404154606271	0
29.58	0	0	0	0	0	0	-20.4600189208579	440.949323241634	-8.86846169041214	0.0570388620076348	0	0.0280789275892023	0	0	0	0	0.850325548696631	0
29.59	0	0	0	0	0	0	-17.8047273090109	438.564532221148	-8.30887878461934	0.0486415059993686	0	0.0277891822873306	0	0	0	0	1.16968675669993	0
29.6	0	0	0	0	0	0	-15.3201863219136	436.877080714615	-7.98247245556116	0.0401022227831938	0	0.0276946501094949	0	0	0	0	1.56392117433389	0
29.61	0	0	0	0	0	0	-12.6315294001597	435.904412135775	-7.81116890668157	0.0309545007836652	0	0.0277950771745695	0	0	0	0	1.94668774299421	0
29.62	0	0	0	0	0	0	-9.75532701542697	435.859850328345	-7.7260962917559	0.0208446633253316	0	0.0280864070727228	0	0	0	0	2.1232020114405	0
29.63	0	0	0	0	0	0	-6.85563978528013	437.212398791228	-7.76135525549595	0.00981514866327617	0	0.0285808118423754	0	0	0	0	2.06486181539402	0
29.64	0	0	0	0	0	0	-4.09475467240526	440.177360285477	-8.0179219499147	-0.00185749845657364	0	0.0290634470740081	0	0	0	0	1.87714682210103	0
29.65	0	0	0	0	0	0	-1.34999359069844	444.773011783706	-8.48733505154643	-0.0139423097162827	0	0.0293549176385377	0	0	0	0	1.71260186466679	0
29.66	0	0	0	0	0	0	1.49088698471287	450.821518933783	-9.03084294516637	-0.0264826885141823	0	0.0294092021610796	0	0	0	0	1.62376453981099	0
29.67	0	0	0	0	0	0	4.71879313165094	457.746791817161	-9.51745047075518	-0.0396112692185013	0	0.0292149174105569	0	0	0	0	1.59929902380155	0
29.68	0	0	0	0	0	0	8.72996816421358	464.965369843944	-9.72028126904047	-0.0533205360700317	0	0.0287983439233153	0	0	0	0	1.59196129724305	0
29.69	0	0	0	0	0	0	13.7609967998301	472.368561199914	-9.57816037126132	-0.0673332139931041	0	0.0282017998615177	0	0	0	0	1.63162191452117	0
29.7	0	0	0	0	0	0	19.8340619243788	480.424788687417	-9.26905231119977	-0.0812637397046485	0	0.0275175624984585	0	0	0	0	2.00977643832776	0
29.71	0	0	0	0	0	0	26.7951832219921	489.886539354501	-8.86557745631028	-0.095071868471725	0	0.0269598864342214	0	0	0	0	2.8801395016963	0
29.72	0	0	0	0	0	0	34.0312215259733	501.339636296874	-8.4667813111949	-0.108455981760078	0	0.0266636965133597	0	0	0	0	3.97524736575698	0
29.73	0	0	0	0	0	0	40.9184487079421	514.887088651831	-8.39683811237462	-0.120972853767931	0	0.0267479431825065	0	0	0	0	4.95609406850797	0
29.74	0	0	0	0	0	0	47.3727812121831	529.764659419094	-9.04141847762712	-0.132545464859939	0	0.0271786568666498	0	0	0	0	5.48963698971331	0
29.75	0	0	0	0	0	0	53.6551293701982	544.556692173026	-10.290781300254	-0.143248184303926	0	0.027797305603749	0	0	0	0	5.41834232590965	0
29.76	0	0	0	0	0	0	60.2938507515423	557.764657600994	-11.9843881273952	-0.153490212340784	0	0.0285690209404264	0	0	0	0	4.94350679783337	0
29.77	0	0	0	0	0	0	67.6733711089281	567.940030822971	-13.899705535204	-0.163769350913792	0	0.0293791787011335	0	0	0	0	4.39451342182002	0
29.78	0	0	0	0	0	0	75.6363477152117	574.163158368803	-15.7371361736072	-0.174134602017187	0	0.030190643738515	0	0	0	0	3.93037355417584	0
29.79	-0.648042627257353	29.4219634044173	3.35476692411526	0.242280927700039	0	-0.0190149266957611	83.4819083698501	575.704023873263	-17.1875099212129	-0.184249578787974	0	0.0309434623720423	0	1.47178033177622	0	0	3.57596715747245	0
29.8	6.5728604956383	64.1808870459795	2.63242327057887	0.244823185886121	0	-0.0424946740960223	90.5843229773944	571.558816550986	-17.8044609058563	-0.194036665622379	0	0.0317063864362802	0	0.827947806970831	0	0	3.62473388152763	0
29.81	12.1056465193067	110.904614245902	1.16516550048957	0.241898671349969	0	-0.0513137205557753	96.6029891909487	559.81495262256	-17.1753490044909	-0.203575919780993	0	0.032482951287749	0	0.564816195426136	0	0	4.12830031428919	0
29.82	10.8138651317339	166.446102516816	-1.53262369292433	0.238844033546034	0	-0.0551630591285552	100.874577075032	538.133695767148	-15.050258277451	-0.213055127877466	0	0.0332401648682291	0	1.26252270599034	0	0	4.71369238857703	0
29.83	2.68130882168913	230.647727641782	-4.50568700616004	0.237513480717145	0	-0.0572363029406773	102.475786595199	504.853825829369	-11.4351194414436	-0.222917226349463	0	0.0339782955047898	0	2.53973136945613	0	0	5.10524254207545	0
29.84	-11.311849103293	304.369713324737	-6.48858058381877	0.237454657759855	0	-0.0589191303355558	100.440007094738	459.595100477001	-6.75513567669518	-0.233367774428024	0	0.0346678741793525	0	3.94489943602166	0	0	5.39273011254607	0
29.85	-29.5836080462872	385.317684790355	-6.55469266648722	0.238726535244234	0	-0.0604931716849509	93.8158803388336	403.610299346608	-1.84784217175465	-0.244044047333012	0	0.035032915020709	0	5.15496600608392	0	0	5.63351481959038	0
29.86	-50.1747856929822	464.57578032453	-4.28842034885567	0.24061394744974	0	-0.0618756685569605	82.620553525198	340.194452209224	2.52737578863939	-0.254875998588432	0	0.0348282770701831	0	6.01757724380481	0	0	5.81078425139848	0
29.87	-69.898492164071	529.992363807586	0.0552880056118612	0.242201260432007	0	-0.063076916402106	68.2521278611991	273.941002418783	5.60565916531503	-0.265879010110891	0	0.0338064034122841	0	6.48471325103509	0	0	5.80090465859593	0
29.88	-85.6643903473578	574.222885876026	5.84736780711245	0.242583454915372	0	-0.0642159788562385	53.212561684358	209.476195806141	6.84503407824168	-0.277680112639475	0	0.0318037519115965	0	6.39021178126412	0	0	5.40406382672188	0
29.89	-96.6109146202801	599.59861046672	12.3104528324635	0.241134495647521	0	-0.0653036271957807	39.8692032340488	150.699261012232	6.16360779466495	-0.292278542323067	0	0.0285203850410226	0	5.86005057108131	0	0	4.65047849855828	0
29.9	-103.39812968453	614.23963650078	18.3482242706034	0.237564403381239	0	-0.0662175786503907	29.3607559902353	100.53367690597	4.02906982284572	-0.313318469332697	0	0.0233375006510992	0	5.46021491591923	0	0	3.77252139878971	0
29.91	-106.635388892661	624.867777495689	22.5854732078557	0.232096926311041	0	-0.0667432099194929	21.3904676301513	60.9208477724758	1.46815015434486	-0.34784414105872	0	0.0145819758648527	0	5.540531442338	0	0	3.00271253297598	0
29.92	-107.102403053456	633.934814553088	24.3324722130176	0.22571355613658	0	-0.0667500591359372	15.3539559634085	32.297960960444	-0.485550723023657	-0.408337785656639	0	-0.00347332990751605	0	6.11026299675156	0	0	2.48455192120426	0
